<svg xmlns="http://www.w3.org/2000/svg" xmlns:xlink="http://www.w3.org/1999/xlink" version="1.1" width="1000" height="1000" viewBox="0 0 1000 1000" xml:space="preserve">
<desc>Created with Fabric.js 3.5.0</desc>
<defs>
</defs>
<rect x="0" y="0" width="100%" height="100%" fill="#53284f"/>
<g transform="matrix(5.8994 0 0 5.8994 499.9981 499.9995)" id="207139">
<path style="stroke: none; stroke-width: 1; stroke-dasharray: none; stroke-linecap: butt; stroke-dashoffset: 0; stroke-linejoin: miter; stroke-miterlimit: 4; is-custom-font: none; font-file-url: none; fill: rgb(255,255,255); fill-rule: nonzero; opacity: 1;" vector-effect="non-scaling-stroke" transform=" translate(-59.0182, -14.0375)" d="m 112.644 28.075 l -7.595 -10.7025 l -14.19875 0 l 0 10.7025 l -4.65 0 l 0 -28.075 l 22.14125 0 c 5.895 0 9.45875 3.41375 9.45875 8.8425 c 0 4.96125 -3.1 7.60125 -7.29 8.29625 l 7.52625 10.93625 l -5.3925 0 z m 0.39125 -19.2325 c 0 -3.10625 -1.90375 -4.61625 -5.81375 -4.61625 l -16.37125 0 l 0 8.9175 l 16.79 0 c 3.49125 0 5.395 -1.55125 5.395 -4.30125 M 70.17287 28.075 L 56.68162 13.30125 l -8.455 6.2425 l 0 8.53125 l -4.6575 0 l 0 -28.075 l 4.6575 0 l 0 14.54 L 67.88787 0 l 6.7075 0 l -14.34875 10.625 l 15.9025 17.45 l -5.97625 0 z m -43.57162 0 l -13.4925 -14.77375 l -8.45125 6.2425 l 0 8.53125 L 0 28.075 L 0 0 l 4.6575 0 l 0 14.54 L 24.31375 0 l 6.71 0 l -14.34875 10.625 l 15.9025 17.45 l -5.97625 0 z" stroke-linecap="round"/>
</g>
</svg>