<?xml version="1.0" encoding="UTF-8"?>
<!DOCTYPE svg PUBLIC "-//W3C//DTD SVG 1.1//EN" "http://www.w3.org/Graphics/SVG/1.1/DTD/svg11.dtd">
<svg version="1.2" width="264.9mm" height="194.9mm" viewBox="0 0 26490 19490" preserveAspectRatio="xMidYMid" fill-rule="evenodd" stroke-width="28.222" stroke-linejoin="round" xmlns="http://www.w3.org/2000/svg" xmlns:ooo="http://xml.openoffice.org/svg/export" xmlns:xlink="http://www.w3.org/1999/xlink" xmlns:presentation="http://sun.com/xmlns/staroffice/presentation" xmlns:smil="http://www.w3.org/2001/SMIL20/" xmlns:anim="urn:oasis:names:tc:opendocument:xmlns:animation:1.0" xml:space="preserve">
 <defs class="ClipPathGroup">
  <clipPath id="presentation_clip_path" clipPathUnits="userSpaceOnUse">
   <rect x="0" y="0" width="26490" height="19490"/>
  </clipPath>
  <clipPath id="presentation_clip_path_shrink" clipPathUnits="userSpaceOnUse">
   <rect x="26" y="19" width="26438" height="19452"/>
  </clipPath>
 </defs>
 <defs class="TextShapeIndex">
  <g ooo:slide="id1" ooo:id-list="id3"/>
 </defs>
 <defs class="EmbeddedBulletChars">
  <g id="bullet-char-template-57356" transform="scale(0.00048828125,-0.00048828125)">
   <path d="M 580,1141 L 1163,571 580,0 -4,571 580,1141 Z"/>
  </g>
  <g id="bullet-char-template-57354" transform="scale(0.00048828125,-0.00048828125)">
   <path d="M 8,1128 L 1137,1128 1137,0 8,0 8,1128 Z"/>
  </g>
  <g id="bullet-char-template-10146" transform="scale(0.00048828125,-0.00048828125)">
   <path d="M 174,0 L 602,739 174,1481 1456,739 174,0 Z M 1358,739 L 309,1346 659,739 1358,739 Z"/>
  </g>
  <g id="bullet-char-template-10132" transform="scale(0.00048828125,-0.00048828125)">
   <path d="M 2015,739 L 1276,0 717,0 1260,543 174,543 174,936 1260,936 717,1481 1274,1481 2015,739 Z"/>
  </g>
  <g id="bullet-char-template-10007" transform="scale(0.00048828125,-0.00048828125)">
   <path d="M 0,-2 C -7,14 -16,27 -25,37 L 356,567 C 262,823 215,952 215,954 215,979 228,992 255,992 264,992 276,990 289,987 310,991 331,999 354,1012 L 381,999 492,748 772,1049 836,1024 860,1049 C 881,1039 901,1025 922,1006 886,937 835,863 770,784 769,783 710,716 594,584 L 774,223 C 774,196 753,168 711,139 L 727,119 C 717,90 699,76 672,76 641,76 570,178 457,381 L 164,-76 C 142,-110 111,-127 72,-127 30,-127 9,-110 8,-76 1,-67 -2,-52 -2,-32 -2,-23 -1,-13 0,-2 Z"/>
  </g>
  <g id="bullet-char-template-10004" transform="scale(0.00048828125,-0.00048828125)">
   <path d="M 285,-33 C 182,-33 111,30 74,156 52,228 41,333 41,471 41,549 55,616 82,672 116,743 169,778 240,778 293,778 328,747 346,684 L 369,508 C 377,444 397,411 428,410 L 1163,1116 C 1174,1127 1196,1133 1229,1133 1271,1133 1292,1118 1292,1087 L 1292,965 C 1292,929 1282,901 1262,881 L 442,47 C 390,-6 338,-33 285,-33 Z"/>
  </g>
  <g id="bullet-char-template-9679" transform="scale(0.00048828125,-0.00048828125)">
   <path d="M 813,0 C 632,0 489,54 383,161 276,268 223,411 223,592 223,773 276,916 383,1023 489,1130 632,1184 813,1184 992,1184 1136,1130 1245,1023 1353,916 1407,772 1407,592 1407,412 1353,268 1245,161 1136,54 992,0 813,0 Z"/>
  </g>
  <g id="bullet-char-template-8226" transform="scale(0.00048828125,-0.00048828125)">
   <path d="M 346,457 C 273,457 209,483 155,535 101,586 74,649 74,723 74,796 101,859 155,911 209,963 273,989 346,989 419,989 480,963 531,910 582,859 608,796 608,723 608,648 583,586 532,535 482,483 420,457 346,457 Z"/>
  </g>
  <g id="bullet-char-template-8211" transform="scale(0.00048828125,-0.00048828125)">
   <path d="M -4,459 L 1135,459 1135,606 -4,606 -4,459 Z"/>
  </g>
  <g id="bullet-char-template-61548" transform="scale(0.00048828125,-0.00048828125)">
   <path d="M 173,740 C 173,903 231,1043 346,1159 462,1274 601,1332 765,1332 928,1332 1067,1274 1183,1159 1299,1043 1357,903 1357,740 1357,577 1299,437 1183,322 1067,206 928,148 765,148 601,148 462,206 346,322 231,437 173,577 173,740 Z"/>
  </g>
 </defs>
 <g>
  <g id="id2" class="Master_Slide">
   <g id="bg-id2" class="Background"/>
   <g id="bo-id2" class="BackgroundObjects"/>
  </g>
 </g>
 <g class="SlideGroup">
  <g>
   <g id="container-id1">
    <g id="id1" class="Slide" clip-path="url(#presentation_clip_path)">
     <g class="Page">
      <g class="Graphic">
       <desc>Created with Fabric.js 3.5.0
       </desc>
       <g id="id3">
        <rect class="BoundingBox" stroke="none" fill="none" x="76" y="1006" width="26485" height="18409"/>
        <defs>
         <clipPath id="clip_path_1" clipPathUnits="userSpaceOnUse">
          <path d="M 76,1006 L 26560,1006 26560,19414 76,19414 76,1006 Z"/>
         </clipPath>
        </defs>
        <g clip-path="url(#clip_path_1)">
         <path fill="rgb(255,255,255)" stroke="none" d="M 13318,19401 L 89,19401 89,-7055 26547,-7055 26547,19401 13318,19401 Z"/>
         <path fill="rgb(73,14,75)" stroke="none" d="M 6648,9046 L 3932,6028 2230,7303 2230,9046 1292,9046 1292,3312 2230,3312 2230,6281 6188,3312 7539,3312 4650,5482 7851,9046 6648,9046 Z"/>
         <path fill="rgb(73,14,75)" stroke="none" d="M 15457,9046 L 12746,6022 11047,7300 11047,9046 10111,9046 10111,3300 11047,3300 11047,6276 14998,3300 16346,3300 13463,5474 16659,9046 15457,9046 Z"/>
         <path fill="rgb(73,14,75)" stroke="none" d="M 24336,5110 C 24336,4474 23953,4165 23165,4165 L 19867,4165 19867,5990 23250,5990 C 23953,5990 24336,5673 24336,5110 Z M 24258,9046 L 22727,6855 19867,6855 19867,9046 18930,9046 18930,3300 23391,3300 C 24579,3300 25296,3999 25296,5110 25296,6125 24672,6666 23828,6808 L 25344,9046 24258,9046 Z"/>
         <path fill="rgb(0,0,0)" stroke="none" d="M 3590,11942 C 3590,12379 3495,12718 3306,12959 3116,13200 2820,13321 2416,13321 L 2416,13321 C 2012,13321 1716,13201 1528,12961 1340,12721 1246,12381 1246,11942 L 1246,11942 C 1246,11500 1342,11160 1532,10921 1723,10682 2017,10563 2416,10563 L 2416,10563 C 2815,10563 3110,10682 3302,10921 3494,11160 3590,11500 3590,11942 L 3590,11942 3590,11942 Z M 2420,13024 C 2699,13024 2897,12927 3014,12734 3131,12541 3190,12277 3190,11942 L 3190,11942 C 3190,11607 3131,11343 3014,11149 2897,10957 2699,10860 2420,10860 L 2420,10860 C 2140,10860 1943,10956 1827,11148 1712,11339 1654,11604 1654,11942 L 1654,11942 C 1654,12280 1712,12545 1827,12736 1943,12928 2140,13024 2420,13024 L 2420,13024 2420,13024 Z"/>
         <path fill="rgb(0,0,0)" stroke="none" d="M 4614,11584 C 4734,11370 4923,11264 5182,11264 L 5182,11264 C 5441,11264 5637,11353 5769,11533 5901,11712 5967,11964 5967,12289 L 5967,12289 C 5967,12619 5891,12873 5740,13052 5589,13231 5357,13321 5045,13321 L 5045,13321 C 4857,13321 4586,13283 4233,13207 L 4233,13207 4233,10456 4614,10456 4614,11180 C 4614,11236 4610,11291 4601,11346 4592,11400 4583,11446 4572,11481 4562,11517 4556,11539 4553,11549 L 4553,11549 4614,11584 4614,11584 Z M 5087,11523 C 4955,11523 4843,11556 4752,11622 4660,11688 4614,11795 4614,11942 L 4614,11942 4614,12997 C 4736,13043 4866,13066 5003,13066 L 5003,13066 C 5160,13066 5280,13034 5361,12971 5442,12907 5496,12820 5523,12710 5550,12599 5563,12459 5563,12289 L 5563,12289 C 5563,12118 5552,11979 5529,11871 5506,11763 5460,11678 5390,11616 5320,11554 5219,11523 5087,11523 L 5087,11523 5087,11523 Z"/>
         <path fill="rgb(0,0,0)" stroke="none" d="M 7937,12723 C 7937,12926 7868,13077 7731,13174 7594,13272 7421,13321 7213,13321 L 7213,13321 C 6976,13321 6740,13263 6504,13146 L 6504,13146 6603,12910 C 6717,12958 6816,12995 6900,13022 6984,13049 7074,13062 7171,13062 L 7171,13062 C 7290,13062 7386,13040 7458,12995 7531,12951 7567,12878 7567,12776 L 7567,12776 C 7567,12705 7547,12648 7506,12605 7465,12562 7383,12515 7258,12464 L 7258,12464 7018,12369 C 6886,12318 6782,12250 6706,12167 6630,12083 6592,11974 6592,11839 L 6592,11839 C 6592,11661 6659,11521 6794,11418 6928,11315 7097,11264 7300,11264 L 7300,11264 C 7478,11264 7674,11304 7887,11386 L 7887,11386 7807,11626 C 7627,11557 7454,11523 7289,11523 L 7289,11523 C 7055,11523 6938,11612 6938,11790 L 6938,11790 C 6938,11861 6962,11916 7011,11955 7059,11995 7145,12041 7270,12094 L 7270,12094 7529,12209 C 7669,12270 7771,12339 7838,12416 7904,12494 7937,12596 7937,12723 L 7937,12723 7937,12723 Z"/>
         <path fill="rgb(0,0,0)" stroke="none" d="M 9365,11264 C 9083,11264 8869,11358 8721,11548 8574,11737 8500,11985 8500,12292 L 8500,12292 C 8500,12607 8577,12858 8729,13043 8881,13228 9105,13321 9400,13321 L 9400,13321 C 9651,13321 9890,13271 10116,13173 L 10116,13173 10040,12944 C 9928,12982 9827,13009 9737,13026 9647,13042 9548,13051 9441,13051 L 9441,13051 C 9083,13051 8904,12826 8904,12376 L 8904,12376 10188,12376 10188,12235 C 10188,11588 9914,11264 9365,11264 L 9365,11264 9365,11264 Z M 8904,12140 C 8912,11942 8948,11790 9013,11683 9078,11576 9194,11523 9362,11523 L 9362,11523 C 9532,11523 9648,11577 9712,11685 9775,11793 9807,11945 9807,12140 L 9807,12140 8904,12140 8904,12140 Z"/>
         <path fill="rgb(0,0,0)" stroke="none" d="M 10912,11279 C 10945,11279 10975,11286 11002,11300 11028,11314 11052,11340 11072,11378 L 11072,11378 11125,11477 11186,11477 C 11245,11393 11309,11337 11379,11308 11449,11278 11548,11264 11678,11264 L 11678,11264 C 11734,11264 11767,11266 11777,11271 L 11777,11271 11777,11584 11621,11584 C 11423,11584 11283,11626 11202,11710 L 11202,11710 11202,13275 10821,13275 10821,11694 10733,11279 10912,11279 10912,11279 Z"/>
         <path fill="rgb(0,0,0)" stroke="none" d="M 13148,12491 C 13118,12574 13091,12665 13069,12763 13046,12861 13032,12924 13026,12952 L 13026,12952 12966,12952 C 12960,12924 12947,12861 12924,12763 12901,12665 12874,12574 12844,12491 L 12844,12491 12425,11310 12048,11310 12786,13275 13206,13275 13945,11310 13567,11310 13148,12491 13148,12491 Z"/>
         <path fill="rgb(0,0,0)" stroke="none" d="M 15876,12807 C 15876,12893 15885,12955 15903,12992 15921,13028 15960,13056 16021,13073 L 16021,13073 15968,13302 C 15965,13305 15956,13308 15939,13314 15923,13318 15901,13321 15872,13321 L 15872,13321 C 15799,13318 15743,13306 15705,13285 15667,13263 15630,13221 15594,13157 L 15594,13157 15537,13054 15476,13054 C 15408,13146 15329,13213 15240,13256 15151,13299 15043,13321 14916,13321 L 14916,13321 C 14721,13321 14566,13270 14451,13167 14337,13064 14280,12916 14280,12723 L 14280,12723 C 14280,12525 14343,12377 14470,12281 14597,12184 14796,12126 15065,12106 L 15065,12106 15499,12071 15499,11946 C 15499,11793 15466,11685 15400,11620 15334,11555 15212,11523 15034,11523 L 15034,11523 C 14905,11523 14726,11551 14497,11607 L 14497,11607 14429,11382 C 14515,11349 14624,11321 14756,11298 14888,11275 15003,11264 15099,11264 L 15099,11264 C 15356,11264 15549,11315 15680,11418 15811,11521 15876,11685 15876,11911 L 15876,11911 15876,12807 15876,12807 Z M 15499,12308 L 15134,12334 C 14824,12357 14669,12480 14669,12704 L 14669,12704 C 14669,12943 14788,13062 15027,13062 L 15027,13062 C 15161,13062 15274,13030 15364,12965 15454,12900 15499,12794 15499,12647 L 15499,12647 15499,12308 15499,12308 Z"/>
         <path fill="rgb(0,0,0)" stroke="none" d="M 17008,11584 C 17127,11370 17316,11264 17576,11264 L 17576,11264 C 17835,11264 18030,11353 18162,11533 18294,11712 18360,11964 18360,12289 L 18360,12289 C 18360,12619 18285,12873 18134,13052 17983,13231 17751,13321 17439,13321 L 17439,13321 C 17250,13321 16980,13283 16627,13207 L 16627,13207 16627,10456 17008,10456 17008,11180 C 17008,11236 17003,11291 16995,11346 16986,11400 16976,11446 16966,11481 16956,11517 16949,11539 16947,11549 L 16947,11549 17008,11584 17008,11584 Z M 17480,11523 C 17348,11523 17236,11556 17145,11622 17054,11688 17008,11795 17008,11942 L 17008,11942 17008,12997 C 17130,13043 17259,13066 17396,13066 L 17396,13066 C 17554,13066 17673,13034 17755,12971 17836,12907 17890,12820 17917,12710 17943,12599 17957,12459 17957,12289 L 17957,12289 C 17957,12118 17945,11979 17922,11871 17899,11763 17853,11678 17783,11616 17713,11554 17612,11523 17480,11523 L 17480,11523 17480,11523 Z"/>
         <path fill="rgb(0,0,0)" stroke="none" d="M 18936,10643 C 18936,10577 18959,10521 19004,10475 19050,10430 19106,10407 19172,10407 L 19172,10407 C 19238,10407 19294,10430 19339,10475 19385,10521 19408,10577 19408,10643 L 19408,10643 C 19408,10709 19385,10765 19339,10811 19294,10856 19238,10879 19172,10879 L 19172,10879 C 19106,10879 19050,10856 19004,10811 18959,10765 18936,10709 18936,10643 L 18936,10643 18936,10643 Z M 18982,13275 L 18982,11310 19362,11310 19362,13275 18982,13275 18982,13275 Z"/>
         <path fill="rgb(0,0,0)" stroke="none" d="M 20490,13275 L 20490,10456 20109,10456 20109,13275 20490,13275 20490,13275 Z"/>
         <path fill="rgb(0,0,0)" stroke="none" d="M 21191,10643 C 21191,10577 21214,10521 21260,10475 21305,10430 21361,10407 21427,10407 L 21427,10407 C 21493,10407 21549,10430 21595,10475 21641,10521 21664,10577 21664,10643 L 21664,10643 C 21664,10709 21641,10765 21595,10811 21549,10856 21493,10879 21427,10879 L 21427,10879 C 21361,10879 21305,10856 21260,10811 21214,10765 21191,10709 21191,10643 L 21191,10643 21191,10643 Z M 21237,13275 L 21237,11310 21618,11310 21618,13275 21237,13275 21237,13275 Z"/>
         <path fill="rgb(0,0,0)" stroke="none" d="M 22425,11310 L 22475,11051 C 22488,10977 22511,10922 22544,10887 22577,10851 22624,10833 22685,10833 L 22685,10833 22806,10833 22806,11310 23370,11310 23370,11572 22806,11572 22806,12723 C 22806,12830 22826,12911 22865,12967 22905,13023 22989,13051 23119,13051 L 23119,13051 C 23198,13051 23288,13040 23389,13020 L 23389,13020 23439,13271 C 23411,13282 23357,13293 23277,13304 23197,13315 23130,13321 23077,13321 L 23077,13321 C 22836,13321 22667,13268 22570,13163 22474,13058 22425,12887 22425,12651 L 22425,12651 22425,11572 22136,11572 22136,11439 22425,11310 22425,11310 Z"/>
         <path fill="rgb(0,0,0)" stroke="none" d="M 24799,12319 C 24766,12403 24738,12494 24715,12592 24692,12689 24678,12752 24673,12780 L 24673,12780 24612,12780 C 24607,12752 24593,12689 24570,12592 24548,12494 24521,12403 24490,12319 L 24490,12319 24132,11310 23748,11310 24460,13203 24083,14068 24475,14068 25554,11310 25176,11310 24799,12319 24799,12319 Z"/>
        </g>
       </g>
      </g>
     </g>
    </g>
   </g>
  </g>
 </g>
</svg>