<?xml version="1.0" encoding="UTF-8"?>
<!DOCTYPE svg PUBLIC "-//W3C//DTD SVG 1.1//EN" "http://www.w3.org/Graphics/SVG/1.1/DTD/svg11.dtd">
<svg version="1.2" width="265.2mm" height="160mm" viewBox="0 0 26520 16000" preserveAspectRatio="xMidYMid" fill-rule="evenodd" stroke-width="28.222" stroke-linejoin="round" xmlns="http://www.w3.org/2000/svg" xmlns:ooo="http://xml.openoffice.org/svg/export" xmlns:xlink="http://www.w3.org/1999/xlink" xmlns:presentation="http://sun.com/xmlns/staroffice/presentation" xmlns:smil="http://www.w3.org/2001/SMIL20/" xmlns:anim="urn:oasis:names:tc:opendocument:xmlns:animation:1.0" xml:space="preserve">
 <defs class="ClipPathGroup">
  <clipPath id="presentation_clip_path" clipPathUnits="userSpaceOnUse">
   <rect x="0" y="0" width="26520" height="16000"/>
  </clipPath>
  <clipPath id="presentation_clip_path_shrink" clipPathUnits="userSpaceOnUse">
   <rect x="26" y="16" width="26467" height="15968"/>
  </clipPath>
 </defs>
 <defs class="TextShapeIndex">
  <g ooo:slide="id1" ooo:id-list="id3"/>
 </defs>
 <defs class="EmbeddedBulletChars">
  <g id="bullet-char-template-57356" transform="scale(0.00048828125,-0.00048828125)">
   <path d="M 580,1141 L 1163,571 580,0 -4,571 580,1141 Z"/>
  </g>
  <g id="bullet-char-template-57354" transform="scale(0.00048828125,-0.00048828125)">
   <path d="M 8,1128 L 1137,1128 1137,0 8,0 8,1128 Z"/>
  </g>
  <g id="bullet-char-template-10146" transform="scale(0.00048828125,-0.00048828125)">
   <path d="M 174,0 L 602,739 174,1481 1456,739 174,0 Z M 1358,739 L 309,1346 659,739 1358,739 Z"/>
  </g>
  <g id="bullet-char-template-10132" transform="scale(0.00048828125,-0.00048828125)">
   <path d="M 2015,739 L 1276,0 717,0 1260,543 174,543 174,936 1260,936 717,1481 1274,1481 2015,739 Z"/>
  </g>
  <g id="bullet-char-template-10007" transform="scale(0.00048828125,-0.00048828125)">
   <path d="M 0,-2 C -7,14 -16,27 -25,37 L 356,567 C 262,823 215,952 215,954 215,979 228,992 255,992 264,992 276,990 289,987 310,991 331,999 354,1012 L 381,999 492,748 772,1049 836,1024 860,1049 C 881,1039 901,1025 922,1006 886,937 835,863 770,784 769,783 710,716 594,584 L 774,223 C 774,196 753,168 711,139 L 727,119 C 717,90 699,76 672,76 641,76 570,178 457,381 L 164,-76 C 142,-110 111,-127 72,-127 30,-127 9,-110 8,-76 1,-67 -2,-52 -2,-32 -2,-23 -1,-13 0,-2 Z"/>
  </g>
  <g id="bullet-char-template-10004" transform="scale(0.00048828125,-0.00048828125)">
   <path d="M 285,-33 C 182,-33 111,30 74,156 52,228 41,333 41,471 41,549 55,616 82,672 116,743 169,778 240,778 293,778 328,747 346,684 L 369,508 C 377,444 397,411 428,410 L 1163,1116 C 1174,1127 1196,1133 1229,1133 1271,1133 1292,1118 1292,1087 L 1292,965 C 1292,929 1282,901 1262,881 L 442,47 C 390,-6 338,-33 285,-33 Z"/>
  </g>
  <g id="bullet-char-template-9679" transform="scale(0.00048828125,-0.00048828125)">
   <path d="M 813,0 C 632,0 489,54 383,161 276,268 223,411 223,592 223,773 276,916 383,1023 489,1130 632,1184 813,1184 992,1184 1136,1130 1245,1023 1353,916 1407,772 1407,592 1407,412 1353,268 1245,161 1136,54 992,0 813,0 Z"/>
  </g>
  <g id="bullet-char-template-8226" transform="scale(0.00048828125,-0.00048828125)">
   <path d="M 346,457 C 273,457 209,483 155,535 101,586 74,649 74,723 74,796 101,859 155,911 209,963 273,989 346,989 419,989 480,963 531,910 582,859 608,796 608,723 608,648 583,586 532,535 482,483 420,457 346,457 Z"/>
  </g>
  <g id="bullet-char-template-8211" transform="scale(0.00048828125,-0.00048828125)">
   <path d="M -4,459 L 1135,459 1135,606 -4,606 -4,459 Z"/>
  </g>
  <g id="bullet-char-template-61548" transform="scale(0.00048828125,-0.00048828125)">
   <path d="M 173,740 C 173,903 231,1043 346,1159 462,1274 601,1332 765,1332 928,1332 1067,1274 1183,1159 1299,1043 1357,903 1357,740 1357,577 1299,437 1183,322 1067,206 928,148 765,148 601,148 462,206 346,322 231,437 173,577 173,740 Z"/>
  </g>
 </defs>
 <g>
  <g id="id2" class="Master_Slide">
   <g id="bg-id2" class="Background"/>
   <g id="bo-id2" class="BackgroundObjects"/>
  </g>
 </g>
 <g class="SlideGroup">
  <g>
   <g id="container-id1">
    <g id="id1" class="Slide" clip-path="url(#presentation_clip_path)">
     <g class="Page">
      <g class="Graphic">
       <g id="id3">
        <rect class="BoundingBox" stroke="none" fill="none" x="0" y="85" width="26435" height="16000"/>
        <defs>
         <clipPath id="clip_path_1" clipPathUnits="userSpaceOnUse">
          <path d="M 0,85 L 26434,85 26434,16084 0,16084 0,85 Z"/>
         </clipPath>
        </defs>
        <g clip-path="url(#clip_path_1)"/>
        <defs>
         <clipPath id="clip_path_2" clipPathUnits="userSpaceOnUse">
          <path d="M 102,85 L 26434,85 26434,16084 102,16084 102,85 Z"/>
         </clipPath>
        </defs>
        <g clip-path="url(#clip_path_2)"/>
        <defs>
         <clipPath id="clip_path_3" clipPathUnits="userSpaceOnUse">
          <path d="M 102,85 L 26434,85 26434,16084 102,16084 102,85 Z"/>
         </clipPath>
        </defs>
        <g clip-path="url(#clip_path_3)">
         <path fill="rgb(255,255,255)" stroke="none" d="M 13330,18311 L 102,18311 102,-8141 26558,-8141 26558,18311 13330,18311 13330,18311 Z"/>
         <path fill="rgb(73,14,75)" stroke="none" d="M 6661,7958 L 3945,4940 2243,6215 2243,7958 1305,7958 1305,2225 2243,2225 2243,5193 6201,2225 7552,2225 4663,4395 7863,7958 6661,7958 6661,7958 Z"/>
         <path fill="rgb(73,14,75)" stroke="none" d="M 15469,7958 L 12758,4934 11059,6212 11059,7958 10123,7958 10123,2213 11059,2213 11059,5188 15010,2213 16358,2213 13475,4387 16671,7958 15469,7958 15469,7958 Z"/>
         <path fill="rgb(73,14,75)" stroke="none" d="M 24347,4023 C 24347,3387 23964,3078 23176,3078 L 19878,3078 19878,4902 23261,4902 C 23964,4902 24347,4586 24347,4023 L 24347,4023 Z M 24269,7958 L 22738,5767 19878,5767 19878,7958 18941,7958 18941,2213 23402,2213 C 24590,2213 25307,2912 25307,4023 25307,5037 24683,5578 23839,5720 L 25355,7958 24269,7958 24269,7958 Z"/>
         <path fill="rgb(0,0,0)" stroke="none" d="M 3603,10854 C 3603,11291 3508,11629 3319,11870 3129,12111 2833,12232 2429,12232 L 2429,12232 C 2025,12232 1729,12112 1541,11872 1353,11632 1259,11293 1259,10854 L 1259,10854 C 1259,10412 1355,10072 1545,9833 1736,9594 2030,9475 2429,9475 L 2429,9475 C 2828,9475 3123,9594 3315,9833 3507,10072 3603,10412 3603,10854 L 3603,10854 3603,10854 3603,10854 Z M 2433,11935 C 2712,11935 2910,11838 3027,11645 3144,11453 3203,11189 3203,10854 L 3203,10854 C 3203,10519 3144,10255 3027,10061 2910,9869 2712,9772 2433,9772 L 2433,9772 C 2153,9772 1956,9868 1840,10060 1725,10251 1667,10516 1667,10854 L 1667,10854 C 1667,11192 1725,11457 1840,11647 1956,11839 2153,11935 2433,11935 L 2433,11935 2433,11935 2433,11935 Z"/>
         <path fill="rgb(0,0,0)" stroke="none" d="M 4627,10496 C 4747,10282 4936,10176 5195,10176 L 5195,10176 C 5454,10176 5650,10265 5782,10445 5914,10624 5980,10876 5980,11201 L 5980,11201 C 5980,11531 5904,11784 5753,11963 5602,12142 5370,12232 5058,12232 L 5058,12232 C 4870,12232 4599,12194 4246,12118 L 4246,12118 4246,9368 4627,9368 4627,10092 C 4627,10148 4623,10203 4614,10258 4605,10312 4596,10358 4585,10393 4575,10429 4569,10451 4566,10461 L 4566,10461 4627,10496 4627,10496 4627,10496 Z M 5100,10435 C 4968,10435 4856,10468 4765,10534 4673,10600 4627,10707 4627,10854 L 4627,10854 4627,11908 C 4749,11954 4879,11977 5016,11977 L 5016,11977 C 5173,11977 5293,11945 5374,11882 5455,11818 5509,11731 5536,11621 5563,11511 5576,11371 5576,11201 L 5576,11201 C 5576,11030 5565,10891 5542,10783 5519,10675 5473,10590 5403,10528 5333,10466 5232,10435 5100,10435 L 5100,10435 5100,10435 5100,10435 Z"/>
         <path fill="rgb(0,0,0)" stroke="none" d="M 7949,11634 C 7949,11837 7880,11988 7744,12085 7607,12183 7434,12232 7226,12232 L 7226,12232 C 6989,12232 6753,12174 6517,12057 L 6517,12057 6616,11821 C 6730,11869 6829,11906 6913,11933 6997,11960 7087,11973 7184,11973 L 7184,11973 C 7303,11973 7399,11951 7471,11906 7544,11862 7580,11789 7580,11687 L 7580,11687 C 7580,11616 7560,11559 7519,11517 7478,11474 7396,11427 7271,11376 L 7271,11376 7031,11281 C 6899,11230 6795,11162 6719,11079 6643,10995 6605,10886 6605,10751 L 6605,10751 C 6605,10573 6672,10433 6807,10330 6941,10227 7110,10176 7313,10176 L 7313,10176 C 7491,10176 7687,10216 7899,10298 L 7899,10298 7820,10538 C 7640,10469 7467,10435 7302,10435 L 7302,10435 C 7068,10435 6951,10524 6951,10702 L 6951,10702 C 6951,10773 6975,10828 7024,10867 7072,10907 7158,10953 7283,11006 L 7283,11006 7542,11121 C 7682,11182 7784,11251 7850,11328 7916,11406 7949,11508 7949,11634 L 7949,11634 7949,11634 7949,11634 Z"/>
         <path fill="rgb(0,0,0)" stroke="none" d="M 9377,10176 C 9095,10176 8881,10270 8733,10460 8586,10649 8512,10897 8512,11204 L 8512,11204 C 8512,11519 8589,11769 8741,11954 8893,12139 9117,12232 9412,12232 L 9412,12232 C 9663,12232 9902,12182 10128,12084 L 10128,12084 10052,11855 C 9940,11893 9839,11920 9749,11937 9659,11953 9560,11962 9453,11962 L 9453,11962 C 9095,11962 8916,11737 8916,11288 L 8916,11288 10200,11288 10200,11147 C 10200,10500 9926,10176 9377,10176 L 9377,10176 9377,10176 9377,10176 Z M 8916,11052 C 8924,10854 8960,10702 9025,10595 9090,10488 9206,10435 9374,10435 L 9374,10435 C 9544,10435 9660,10489 9724,10597 9787,10705 9819,10857 9819,11052 L 9819,11052 8916,11052 8916,11052 8916,11052 Z"/>
         <path fill="rgb(0,0,0)" stroke="none" d="M 10924,10191 C 10957,10191 10987,10198 11014,10212 11040,10226 11064,10252 11084,10290 L 11084,10290 11137,10389 11198,10389 C 11257,10305 11321,10249 11391,10220 11461,10190 11560,10176 11690,10176 L 11690,10176 C 11746,10176 11779,10178 11789,10183 L 11789,10183 11789,10496 11633,10496 C 11435,10496 11295,10538 11214,10622 L 11214,10622 11214,12186 10833,12186 10833,10606 10745,10191 10924,10191 10924,10191 10924,10191 Z"/>
         <path fill="rgb(0,0,0)" stroke="none" d="M 13160,11403 C 13130,11486 13103,11576 13081,11674 13058,11772 13044,11835 13038,11863 L 13038,11863 12978,11863 C 12972,11835 12959,11772 12936,11674 12913,11576 12886,11486 12856,11403 L 12856,11403 12437,10222 12060,10222 12798,12186 13218,12186 13957,10222 13579,10222 13160,11403 13160,11403 13160,11403 Z"/>
         <path fill="rgb(0,0,0)" stroke="none" d="M 15888,11718 C 15888,11804 15897,11866 15915,11903 15933,11939 15972,11967 16033,11984 L 16033,11984 15980,12213 C 15977,12216 15968,12219 15951,12225 15935,12229 15913,12232 15884,12232 L 15884,12232 C 15811,12229 15755,12217 15717,12196 15679,12174 15642,12132 15606,12068 L 15606,12068 15549,11965 15488,11965 C 15420,12057 15341,12124 15252,12167 15163,12210 15055,12232 14928,12232 L 14928,12232 C 14733,12232 14578,12181 14463,12078 14349,11975 14292,11827 14292,11634 L 14292,11634 C 14292,11437 14355,11289 14482,11193 14609,11096 14808,11038 15077,11018 L 15077,11018 15511,10983 15511,10858 C 15511,10705 15478,10597 15412,10532 15346,10467 15224,10435 15046,10435 L 15046,10435 C 14917,10435 14738,10463 14509,10519 L 14509,10519 14441,10294 C 14527,10261 14636,10233 14768,10210 14900,10187 15015,10176 15111,10176 L 15111,10176 C 15368,10176 15561,10227 15692,10330 15823,10433 15888,10597 15888,10823 L 15888,10823 15888,11718 15888,11718 15888,11718 Z M 15511,11220 L 15146,11246 C 14836,11269 14681,11392 14681,11615 L 14681,11615 C 14681,11854 14800,11973 15039,11973 L 15039,11973 C 15173,11973 15286,11941 15376,11876 15466,11811 15511,11705 15511,11558 L 15511,11558 15511,11220 15511,11220 15511,11220 Z"/>
         <path fill="rgb(0,0,0)" stroke="none" d="M 17020,10496 C 17139,10282 17328,10176 17588,10176 L 17588,10176 C 17847,10176 18042,10265 18174,10445 18306,10624 18372,10876 18372,11201 L 18372,11201 C 18372,11531 18297,11784 18146,11963 17995,12142 17763,12232 17451,12232 L 17451,12232 C 17262,12232 16992,12194 16639,12118 L 16639,12118 16639,9368 17020,9368 17020,10092 C 17020,10148 17015,10203 17007,10258 16998,10312 16988,10358 16978,10393 16968,10429 16961,10451 16959,10461 L 16959,10461 17020,10496 17020,10496 17020,10496 Z M 17492,10435 C 17360,10435 17248,10468 17157,10534 17066,10600 17020,10707 17020,10854 L 17020,10854 17020,11908 C 17142,11954 17271,11977 17408,11977 L 17408,11977 C 17566,11977 17685,11945 17767,11882 17848,11818 17902,11731 17929,11621 17955,11511 17969,11371 17969,11201 L 17969,11201 C 17969,11030 17957,10891 17934,10783 17911,10675 17865,10590 17795,10528 17725,10466 17624,10435 17492,10435 L 17492,10435 17492,10435 17492,10435 Z"/>
         <path fill="rgb(0,0,0)" stroke="none" d="M 18947,9555 C 18947,9489 18970,9433 19015,9387 19061,9342 19117,9319 19183,9319 L 19183,9319 C 19249,9319 19305,9342 19350,9387 19396,9433 19419,9489 19419,9555 L 19419,9555 C 19419,9621 19396,9677 19350,9723 19305,9768 19249,9791 19183,9791 L 19183,9791 C 19117,9791 19061,9768 19015,9723 18970,9677 18947,9621 18947,9555 L 18947,9555 18947,9555 18947,9555 Z M 18993,12186 L 18993,10222 19373,10222 19373,12186 18993,12186 18993,12186 18993,12186 Z"/>
         <path fill="rgb(0,0,0)" stroke="none" d="M 20501,12186 L 20501,9368 20120,9368 20120,12186 20501,12186 20501,12186 20501,12186 Z"/>
         <path fill="rgb(0,0,0)" stroke="none" d="M 21202,9555 C 21202,9489 21225,9433 21271,9387 21316,9342 21372,9319 21438,9319 L 21438,9319 C 21504,9319 21560,9342 21606,9387 21652,9433 21675,9489 21675,9555 L 21675,9555 C 21675,9621 21652,9677 21606,9723 21560,9768 21504,9791 21438,9791 L 21438,9791 C 21372,9791 21316,9768 21271,9723 21225,9677 21202,9621 21202,9555 L 21202,9555 21202,9555 21202,9555 Z M 21248,12186 L 21248,10222 21629,10222 21629,12186 21248,12186 21248,12186 21248,12186 Z"/>
         <path fill="rgb(0,0,0)" stroke="none" d="M 22436,10222 L 22486,9963 C 22499,9889 22522,9834 22555,9799 22588,9763 22635,9745 22696,9745 L 22696,9745 22817,9745 22817,10222 23381,10222 23381,10484 22817,10484 22817,11634 C 22817,11741 22837,11822 22876,11878 22916,11934 23000,11962 23130,11962 L 23130,11962 C 23209,11962 23299,11951 23400,11931 L 23400,11931 23450,12182 C 23422,12193 23368,12204 23288,12215 23208,12226 23141,12232 23088,12232 L 23088,12232 C 22847,12232 22678,12179 22581,12074 22485,11969 22436,11798 22436,11562 L 22436,11562 22436,10484 22147,10484 22147,10351 22436,10222 22436,10222 22436,10222 Z"/>
         <path fill="rgb(0,0,0)" stroke="none" d="M 24810,11231 C 24777,11315 24749,11406 24726,11504 24703,11600 24689,11663 24684,11691 L 24684,11691 24623,11691 C 24618,11663 24604,11600 24581,11504 24559,11406 24532,11315 24501,11231 L 24501,11231 24143,10222 23759,10222 24471,12114 24094,12979 24486,12979 25565,10222 25187,10222 24810,11231 24810,11231 24810,11231 Z"/>
        </g>
        <g clip-path="url(#clip_path_2)"/>
        <g clip-path="url(#clip_path_1)"/>
       </g>
      </g>
     </g>
    </g>
   </g>
  </g>
 </g>
</svg>